<svg width="174" height="39" viewBox="0 0 174 39" xmlns="http://www.w3.org/2000/svg">
    <g fill="#000" fill-rule="evenodd">
        <path d="M8.525 16.235c2.417 0 4.324-.776 5.721-2.33 1.397-1.554 2.095-3.414 2.095-5.58 0-2.15-.694-3.997-2.083-5.543-1.39-1.546-3.276-2.32-5.662-2.32-2.354 0-4.237.762-5.65 2.284C1.534 4.27.828 6.144.828 8.373c0 2.134.674 3.978 2.024 5.532 1.35 1.554 3.24 2.33 5.673 2.33zm.118-2.307c-1.71 0-2.97-.557-3.778-1.671-.808-1.114-1.213-2.433-1.213-3.955 0-1.57.412-2.884 1.236-3.943.824-1.06 2.052-1.59 3.685-1.59 1.553 0 2.766.51 3.637 1.531.87 1.02 1.306 2.386 1.306 4.096 0 1.601-.408 2.923-1.224 3.967-.816 1.044-2.032 1.565-3.649 1.565zm14.902 7.086v-1.977H21.45v-4.45c.69 1.1 1.797 1.648 3.319 1.648 1.648 0 2.868-.588 3.66-1.765.793-1.177 1.19-2.52 1.19-4.026 0-1.648-.42-2.93-1.26-3.849-.84-.918-1.934-1.377-3.284-1.377-.973 0-1.746.228-2.319.683a4.555 4.555 0 00-1.306 1.624V5.43h-4.167v1.93h1.648v11.677h-1.578v1.977h6.192zm.635-6.803c-.8 0-1.455-.267-1.965-.8-.51-.534-.765-1.24-.765-2.12l.023-.823c.032-.863.29-1.617.777-2.26.487-.644 1.154-.965 2.001-.965.8 0 1.46.294 1.977.882.518.589.777 1.448.777 2.578 0 1.083-.247 1.938-.741 2.566-.495.628-1.19.942-2.084.942zm12.006 2.024c1.429 0 2.55-.345 3.367-1.035.816-.69 1.271-1.5 1.365-2.425l-2.095-.4c-.11.44-.341.855-.694 1.247-.354.393-.938.589-1.754.589-1.742 0-2.684-.989-2.825-2.966h7.133c.094-.503.141-.973.141-1.413-.016-1.334-.451-2.436-1.307-3.307-.855-.871-2.012-1.307-3.472-1.307-1.616 0-2.876.542-3.778 1.624-.903 1.083-1.354 2.433-1.354 4.05 0 1.757.495 3.087 1.483 3.99.989.902 2.252 1.353 3.79 1.353zm2.048-6.544h-4.66c.093-.738.337-1.358.73-1.86.391-.502.964-.753 1.718-.753.831 0 1.424.278 1.777.836.353.557.498 1.15.435 1.777zM47.886 16v-1.93H46.31V9.856c.016-.754.255-1.39.718-1.907.463-.518 1.095-.777 1.895-.777.644 0 1.146.208 1.507.624.36.416.541 1.126.541 2.13v4.144h-1.553V16h5.65v-1.93h-1.578V9.008c0-1.302-.36-2.26-1.083-2.872-.722-.612-1.585-.918-2.59-.918-1.6 0-2.77.644-3.507 1.93V5.43h-4.167v1.954h1.648v6.686h-1.577V16h5.673zm19.257 0v-2.236h-1.742V2.934h1.742V.699h-6.12v2.237h1.765v10.829h-1.766V16h6.121zm7.321 0v-1.93h-1.577V9.856c.016-.754.255-1.39.718-1.907.463-.518 1.095-.777 1.895-.777.644 0 1.146.208 1.507.624.36.416.541 1.126.541 2.13v4.144h-1.553V16h5.65v-1.93h-1.578V9.008c0-1.302-.36-2.26-1.083-2.872-.722-.612-1.585-.918-2.59-.918-1.6 0-2.77.644-3.507 1.93V5.43H68.72v1.954h1.648v6.686h-1.577V16h5.673zm13.795 0v-1.93h-1.577V9.856c.016-.754.255-1.39.718-1.907.463-.518 1.095-.777 1.895-.777.644 0 1.146.208 1.507.624.36.416.541 1.126.541 2.13v4.144H89.79V16h5.65v-1.93h-1.578V9.008c0-1.302-.36-2.26-1.083-2.872-.722-.612-1.585-.918-2.59-.918-1.6 0-2.77.644-3.507 1.93V5.43h-4.167v1.954h1.648v6.686h-1.577V16h5.673zm13.419.235c1.663 0 3.017-.506 4.06-1.518 1.044-1.012 1.566-2.342 1.566-3.99 0-1.491-.455-2.786-1.365-3.885-.91-1.098-2.284-1.647-4.12-1.647-1.82 0-3.194.553-4.12 1.66-.925 1.106-1.388 2.428-1.388 3.966 0 1.664.49 2.982 1.47 3.955.982.973 2.28 1.46 3.897 1.46zm.094-1.977c-.942 0-1.652-.345-2.13-1.036-.48-.69-.718-1.538-.718-2.542 0-1.068.25-1.919.753-2.555.502-.635 1.2-.953 2.095-.953.863 0 1.566.298 2.107.895.541.596.812 1.46.812 2.59 0 1.066-.259 1.933-.777 2.6s-1.232 1.001-2.142 1.001zM115.026 16l3.79-8.64h1.153V5.43h-4.755v1.93h1.177l-1.977 5.368h-.142l-2.377-5.368h1.295V5.43h-5.18v1.93h1.178L113.19 16h1.836zm14.76.235c.612 0 1.177-.149 1.695-.447l-.023-1.389c-.22.063-.4.094-.542.094-.518 0-.777-.314-.777-.941V8.796c0-1.192-.38-2.087-1.142-2.683-.76-.597-1.73-.895-2.907-.895-.8 0-1.507.07-2.119.212-.612.141-1.31.4-2.095.777l-.447 2.636 2.025.212.423-1.624a2.7 2.7 0 01.836-.282c.29-.048.6-.071.93-.071.879 0 1.428.251 1.648.753.22.502.33 1.067.33 1.695v.589a13.073 13.073 0 00-.872-.07c-.314-.017-.62-.024-.918-.024-1.208 0-2.33.207-3.366.623-1.036.416-1.554 1.276-1.554 2.578 0 1.114.357 1.895 1.071 2.342.714.448 1.44.671 2.178.671.847 0 1.557-.22 2.13-.659.573-.44 1.016-.934 1.33-1.483v.047c.11 1.397.832 2.095 2.166 2.095zm-4.755-1.86c-1.02 0-1.53-.478-1.53-1.435 0-.66.247-1.099.741-1.319.495-.22 1.056-.33 1.683-.33.299 0 .589.016.871.048.283.031.557.063.824.094v.377c-.062.847-.36 1.487-.894 1.918-.534.432-1.099.648-1.695.648zm12.312 1.86c2.181 0 3.421-1.114 3.72-3.342l-1.86-.589c-.126.816-.354 1.322-.683 1.518-.33.197-.628.295-.895.295-.973 0-1.46-.557-1.46-1.672V7.29h3.932V5.43h-3.931V2.158h-2.52V5.43h-1.553v1.86h1.554v5.555c0 1.068.333 1.9 1 2.496.667.596 1.566.894 2.696.894zm8.428-12.994V.463h-2.566V3.24h2.566zM147.418 16v-1.93h-1.577V5.43h-4.167v1.954h1.672v6.686h-1.577V16h5.65zm6.427.235c1.664 0 3.017-.506 4.061-1.518s1.566-2.342 1.566-3.99c0-1.491-.456-2.786-1.366-3.885-.91-1.098-2.283-1.647-4.12-1.647-1.82 0-3.193.553-4.12 1.66-.925 1.106-1.388 2.428-1.388 3.966 0 1.664.49 2.982 1.471 3.955.981.973 2.28 1.46 3.896 1.46zm.094-1.977c-.941 0-1.651-.345-2.13-1.036-.479-.69-.718-1.538-.718-2.542 0-1.068.251-1.919.753-2.555.502-.635 1.2-.953 2.095-.953.864 0 1.566.298 2.107.895.542.596.812 1.46.812 2.59 0 1.066-.259 1.933-.776 2.6-.518.667-1.232 1.001-2.143 1.001zM166.44 16v-1.93h-1.577V9.856c.016-.754.255-1.39.718-1.907.463-.518 1.095-.777 1.896-.777.643 0 1.145.208 1.506.624.361.416.542 1.126.542 2.13v4.144h-1.554V16h5.65v-1.93h-1.578V9.008c0-1.302-.36-2.26-1.082-2.872-.722-.612-1.585-.918-2.59-.918-1.6 0-2.77.644-3.508 1.93V5.43h-4.166v1.954h1.648v6.686h-1.578V16h5.674z" fill-rule="nonzero"/>
        <path d="M53.658 23.3V39H0V23.3h53.658zm-33.5 5.708c-2.425 0-3.622 1.637-3.622 3.62 0 2.162 1.437 3.439 3.518 3.439 2.156 0 3.713-1.367 3.713-3.53 0-1.892-1.183-3.53-3.609-3.53zm27.973 0c-1.107 0-1.721.135-2.904.616l-.263 1.558 1.543.165.22-.762c.314-.165.632-.195 1.035-.195 1.094 0 1.115.826 1.115 1.517v.225a8.4 8.4 0 00-1.115-.06c-1.54 0-3.15.39-3.15 2.058 0 1.411 1.109 1.937 2.081 1.937 1.093 0 1.782-.661 2.171-1.352.09.826.584 1.352 1.482 1.352.42 0 .858-.12 1.217-.315l-.01-1.022a.97.97 0 01-.278.045c-.314 0-.449-.135-.449-.525v-2.944c0-1.547-1.242-2.298-2.695-2.298zm-13.347 4.407h-1.95v2.558h1.95v-2.558zm-22.288-4.407c-1.063 0-1.853.556-2.227 1.457-.33-.991-1.235-1.457-2.208-1.457-.943 0-1.614.435-2.064 1.156v-.96H3.148v1.353h.9v3.911h-.9v1.504h4.199v-1.504h-1.35v-2.381c0-.946.42-1.607 1.35-1.607.763 0 1.199.45 1.199 1.622v3.87h2.699v-1.504h-.9v-2.381c0-.946.42-1.607 1.35-1.607.763 0 1.199.45 1.199 1.622v3.87h2.849v-1.504h-.9v-3.117c0-1.607-1.134-2.343-2.347-2.343zm18.431.196H25l-.24 2.328 1.393.106.3-1.08h2.11l-3.713 4.337.195 1.077h5.898l.42-2.395-1.527-.172-.315 1.063h-2.186l3.743-4.261-.15-1.003zm9.955-3.61H38.98l-2.92 10.378h1.903l2.92-10.379zm3.923 0h-1.902l-2.92 10.378h1.902l2.92-10.379zm3.086 7.379c.315 0 .659.045.974.09-.046 1.127-.779 1.623-1.468 1.623-.584 0-.794-.347-.794-.782 0-.736.6-.931 1.288-.931zM20.13 30.495c.913 0 1.647.616 1.647 1.982 0 1.292-.66 2.103-1.662 2.103-1.049 0-1.588-.9-1.588-2.073 0-1.276.615-2.012 1.603-2.012zm14.655-1.291h-1.95v2.407h1.95v-2.407z"/>
    </g>
</svg>
